<svg xmlns="http://www.w3.org/2000/svg" width="80" height="80" viewBox="0 0 80 80">
  <path id="icon-instagram" class="icon-instagram" d="M40.187,16.377c7.694,0,8.6.029,11.643,0.168a15.953,15.953,0,0,1,5.35.992,9.54,9.54,0,0,1,5.468,5.469,15.94,15.94,0,0,1,.992,5.35c0.139,3.038.168,3.95,0.168,11.643S63.78,48.6,63.642,51.643a15.942,15.942,0,0,1-.992,5.351,9.542,9.542,0,0,1-5.468,5.468,15.947,15.947,0,0,1-5.35.993c-3.038.138-3.949,0.168-11.643,0.168s-8.605-.029-11.643-0.168a15.946,15.946,0,0,1-5.35-.993,9.543,9.543,0,0,1-5.469-5.468,15.945,15.945,0,0,1-.992-5.351C16.594,48.6,16.565,47.694,16.565,40s0.029-8.6.168-11.643a15.943,15.943,0,0,1,.992-5.35,9.54,9.54,0,0,1,5.469-5.469,15.951,15.951,0,0,1,5.35-.992c3.038-.139,3.95-0.168,11.643-0.168m0-5.192c-7.825,0-8.807.033-11.88,0.174A21.149,21.149,0,0,0,21.313,12.7a14.733,14.733,0,0,0-8.427,8.427,21.148,21.148,0,0,0-1.339,6.994c-0.14,3.073-.173,4.054-0.173,11.88s0.033,8.807.173,11.88a21.148,21.148,0,0,0,1.339,6.994A14.731,14.731,0,0,0,21.313,67.3a21.147,21.147,0,0,0,6.994,1.339c3.073,0.14,4.055.174,11.88,0.174s8.807-.033,11.88-0.174A21.146,21.146,0,0,0,59.062,67.3a14.732,14.732,0,0,0,8.427-8.427,21.153,21.153,0,0,0,1.339-6.994C68.968,48.806,69,47.825,69,40s-0.033-8.807-.173-11.88a21.153,21.153,0,0,0-1.339-6.994A14.734,14.734,0,0,0,59.062,12.7a21.149,21.149,0,0,0-6.994-1.339c-3.073-.14-4.055-0.174-11.88-0.174h0Zm0,14.018A14.8,14.8,0,1,0,54.984,40,14.8,14.8,0,0,0,40.187,25.2Zm0,24.4a9.6,9.6,0,1,1,9.6-9.6A9.6,9.6,0,0,1,40.187,49.6ZM59.026,24.618a3.458,3.458,0,1,1-3.458-3.457A3.458,3.458,0,0,1,59.026,24.618Z"/>
</svg>
